<?xml version="1.0" encoding="UTF-8" standalone="no"?>
<!-- Created with Inkscape (http://www.inkscape.org/) -->

<svg
   width="59.39777mm"
   height="15.578218mm"
   viewBox="0 0 59.39777 15.578218"
   version="1.1"
   id="svg1"
   inkscape:export-filename="log.png"
   inkscape:export-xdpi="96"
   inkscape:export-ydpi="96"
   inkscape:version="1.4.2 (f4327f4, 2025-05-13)"
   sodipodi:docname="logo-aldux.svg"
   xmlns:inkscape="http://www.inkscape.org/namespaces/inkscape"
   xmlns:sodipodi="http://sodipodi.sourceforge.net/DTD/sodipodi-0.dtd"
   xmlns="http://www.w3.org/2000/svg"
   xmlns:svg="http://www.w3.org/2000/svg">
  <sodipodi:namedview
     id="namedview1"
     pagecolor="#ffffff"
     bordercolor="#000000"
     borderopacity="0.25"
     inkscape:showpageshadow="2"
     inkscape:pageopacity="0.0"
     inkscape:pagecheckerboard="0"
     inkscape:deskcolor="#d1d1d1"
     inkscape:document-units="mm"
     inkscape:zoom="2.6191077"
     inkscape:cx="80.370882"
     inkscape:cy="-21.954041"
     inkscape:window-width="1680"
     inkscape:window-height="979"
     inkscape:window-x="-8"
     inkscape:window-y="-8"
     inkscape:window-maximized="1"
     inkscape:current-layer="Layer1000-9" />
  <defs
     id="defs1" />
  <g
     inkscape:label="Capa 1"
     inkscape:groupmode="layer"
     id="layer1"
     transform="translate(-75.141665,-140.75833)">
    <g
       id="Layer1000-9"
       style="display:inline"
       transform="matrix(0.35277721,0,0,0.35277721,-1.5093082,92.844168)">
      <path
         d="m 276.2063,172.4913 h 1.9894 v -0.554 h -4.5831 v 0.554 h 1.9894 v 5.3889 h 0.6043 z m 10.8627,2.4175 c 0,-1.8047 -1.3262,-3.1226 -3.0973,-3.1226 -1.7712,0 -3.0974,1.3179 -3.0974,3.1226 0,1.8046 1.3262,3.1225 3.0974,3.1225 1.7711,0 3.0973,-1.3179 3.0973,-3.1225 z m -0.6548,0 c 0,1.3681 -0.9148,2.5685 -2.4425,2.5685 -1.5277,0 -2.4426,-1.2004 -2.4426,-2.5685 0,-1.3682 0.9149,-2.5686 2.4426,-2.5686 1.5277,0 2.4425,1.2004 2.4425,2.5686 z m 4.6261,-2.9715 h -0.6044 v 5.9429 h 3.3743 v -0.554 h -2.7699 z m 5.6668,5.9429 h 1.9725 c 1.4857,0 3.1225,-0.9905 3.1225,-2.9714 0,-1.981 -1.6368,-2.9715 -3.1225,-2.9715 h -1.9725 z m 0.6043,-5.3889 h 1.1751 c 1.8131,0 2.6609,1.192 2.6609,2.4175 0,1.2254 -0.8478,2.4174 -2.6609,2.4174 h -1.1751 z m 13.6493,2.4175 c 0,-1.8047 -1.3262,-3.1226 -3.0973,-3.1226 -1.7711,0 -3.0974,1.3179 -3.0974,3.1226 0,1.8046 1.3263,3.1225 3.0974,3.1225 1.7711,0 3.0973,-1.3179 3.0973,-3.1225 z m -0.6547,0 c 0,1.3681 -0.9149,2.5685 -2.4426,2.5685 -1.5277,0 -2.4426,-1.2004 -2.4426,-2.5685 0,-1.3682 0.9149,-2.5686 2.4426,-2.5686 1.5277,0 2.4426,1.2004 2.4426,2.5686 z m 7.3624,-2.4007 c -0.4701,-0.5372 -1.0073,-0.7219 -1.6788,-0.7219 -0.9653,0 -1.9222,0.5372 -1.9222,1.6872 0,2.174 3.047,1.2423 3.047,2.921 0,0.6967 -0.6799,1.0829 -1.2758,1.0829 -0.6212,0 -1.0997,-0.2854 -1.3515,-0.7219 l -0.5456,0.3945 c 0.4532,0.6212 1.1499,0.8814 1.8718,0.8814 0.9401,0 1.9558,-0.638 1.9558,-1.7207 0,-2.1406 -3.0469,-1.2928 -3.0469,-2.896 0,-0.747 0.6462,-1.0744 1.2674,-1.0744 0.5036,0 0.8898,0.1931 1.15,0.5792 z m 16.5713,4.0794 c -0.4449,0.6883 -1.0827,0.8898 -1.7039,0.8898 -1.5277,0 -2.4426,-1.2004 -2.4426,-2.5685 0,-1.3682 0.9149,-2.5686 2.4426,-2.5686 0.6295,0 1.2926,0.3945 1.5277,0.7807 l 0.5288,-0.3946 c -0.5205,-0.6631 -1.3179,-0.9401 -2.0565,-0.9401 -1.7711,0 -3.0974,1.3179 -3.0974,3.1226 0,1.8046 1.3263,3.1225 3.0974,3.1225 0.982,0 1.8047,-0.4785 2.1992,-1.0912 z m 9.4609,-1.6787 c 0,-1.8047 -1.3262,-3.1226 -3.0973,-3.1226 -1.7712,0 -3.0974,1.3179 -3.0974,3.1226 0,1.8046 1.3262,3.1225 3.0974,3.1225 1.7711,0 3.0973,-1.3179 3.0973,-3.1225 z m -0.6548,0 c 0,1.3681 -0.9148,2.5685 -2.4425,2.5685 -1.5277,0 -2.4426,-1.2004 -2.4426,-2.5685 0,-1.3682 0.9149,-2.5686 2.4426,-2.5686 1.5277,0 2.4425,1.2004 2.4425,2.5686 z m 4.6261,0.2098 h 1.0072 l 1.6284,2.7616 h 0.7387 l -1.7123,-2.8203 c 0.9736,-0.084 1.5192,-0.7135 1.5192,-1.5361 0,-1.0661 -0.747,-1.5865 -1.9558,-1.5865 h -1.8299 v 5.9429 h 0.6045 z m 0,-2.6273 h 1.0743 c 1.0829,0 1.4522,0.4617 1.4522,1.0325 0,0.5708 -0.3693,1.0408 -1.4522,1.0408 h -1.0743 z m 8.4872,0 h 1.9893 v -0.554 h -4.5831 v 0.554 h 1.9894 v 5.3889 h 0.6044 z m 5.6752,-0.554 h -0.6044 v 5.9429 h 0.6044 z m 4.5252,0 h -0.7554 v 5.9429 h 0.6044 v -5.0867 h 0.0167 l 3.5422,5.0867 h 0.7555 v -5.9429 h -0.6044 v 5.0363 h -0.0168 z m 8.4872,4.3817 h 3.0386 l 0.6547,1.5612 h 0.7051 l -2.5853,-5.9429 h -0.5875 l -2.5854,5.9429 h 0.7051 z m 1.5193,-3.6766 1.2843,3.1225 h -2.577 z m 9.1838,-0.1343 c -0.47,-0.5372 -1.0072,-0.7219 -1.6788,-0.7219 -0.9652,0 -1.9221,0.5372 -1.9221,1.6872 0,2.174 3.0469,1.2423 3.0469,2.921 0,0.6967 -0.6798,1.0829 -1.2758,1.0829 -0.6211,0 -1.0996,-0.2854 -1.3514,-0.7219 l -0.5456,0.3945 c 0.4532,0.6212 1.1499,0.8814 1.8718,0.8814 0.9401,0 1.9558,-0.638 1.9558,-1.7207 0,-2.1406 -3.047,-1.2928 -3.047,-2.896 0,-0.747 0.6463,-1.0744 1.2674,-1.0744 0.5037,0 0.8899,0.1931 1.1501,0.5792 z m -62.1895,-0.9233 v 8.3939 h 0.5037 v -8.3939 z"
         style="fill:#000000;fill-rule:evenodd"
         id="path11-4" />
      <path
         d="m 288.9005,162.0719 1.56,4.0246 h 5.9278 l -9.2037,-21.8394 h -5.7095 l -9.4221,21.8394 h 5.7095 l 1.5911,-4.0246 z m -1.6223,-4.2119 h -6.3023 l 3.1823,-8.0807 z m 16.8895,3.5879 v -17.1908 h -5.5534 v 21.8394 h 14.8196 v -4.6486 z m 12.1161,-17.1908 v 21.8394 h 9.1726 c 7.0198,0 11.8245,-4.4614 11.8245,-10.9197 0,-6.4894 -4.7423,-10.9197 -11.6061,-10.9197 z m 5.5534,4.4303 h 3.7128 c 3.5255,0 6.0839,2.6519 6.0839,6.5206 0,3.8375 -2.4336,6.4582 -5.8344,6.4582 h -3.9623 z m 38.2299,-4.4303 h -5.5223 v 12.6668 c 0,2.964 -1.7784,4.7735 -4.3991,4.7735 -2.652,0 -4.555,-1.8095 -4.555,-4.7735 v -12.6668 h -5.5535 v 12.6668 c 0,5.7719 3.931,9.4222 10.0773,9.4222 6.115,0 9.9526,-3.6503 9.9526,-9.4222 z m 16.8584,10.4205 7.207,-10.4205 h -6.5206 l -4.2119,6.3647 -4.212,-6.3647 h -6.4582 l 7.3007,10.6702 -7.7999,11.1692 h 6.4583 l 4.7111,-6.9574 4.711,6.9574 h 6.6455 z"
         style="fill:#000000;fill-rule:evenodd;stroke:#000000;stroke-width:0.2835;stroke-linecap:butt;stroke-linejoin:miter;stroke-dasharray:none;stroke-opacity:1"
         id="path12-8" />
      <path
         d="m 239.1228,137.415 c 11.4869,0 20.7988,8.789 20.7988,19.6312 0,10.842 -9.3119,19.6312 -20.7988,19.6312 -11.4869,0 -20.7989,-8.7892 -20.7989,-19.6312 0,-10.8422 9.312,-19.6312 20.7989,-19.6312 z"
         style="fill:#ea5310;fill-rule:evenodd;stroke:#1b1918;stroke-width:0.5669;stroke-linecap:butt;stroke-linejoin:miter;stroke-dasharray:none"
         id="path13-8" />
      <path
         d="m 222.4266,168.1757 16.6484,-29.5083 11.5791,19.7173 h -5.4962 l -5.9231,-10.1921 -9.0708,15.5542 23.2118,-0.0535 2.5613,4.4824 z m -5.1479,-10.4526 c 0,12.0966 9.8066,21.9031 21.9032,21.9031 12.0966,0 21.9032,-9.8065 21.9032,-21.9031 0,-12.0967 -9.8066,-21.9032 -21.9032,-21.9032 -12.0966,0 -21.9032,9.8065 -21.9032,21.9032 z"
         style="fill:#ffffff;fill-rule:evenodd"
         id="path14-2"
         sodipodi:nodetypes="cccccccccsssss" />
      <path
         d="m 234.6443,161.3833 5.0429,-8.6471 3.2928,5.666 h 3.0554 l -6.4371,-10.9612 -9.4964,16.3762 18.9981,0.0283 -1.424,-2.4919 z"
         style="fill:#504f4f;fill-rule:evenodd"
         id="path15-4" />
    </g>
  </g>
</svg>
