<svg width="113" height="108" viewBox="0 0 113 108" fill="none" xmlns="http://www.w3.org/2000/svg">
<path d="M32.9582 44.9993H47.0832V31.4993L30.604 15.7493C35.8756 13.3431 41.7981 12.558 47.5559 13.5021C53.3137 14.4463 58.6237 17.0733 62.7546 21.0214C66.8854 24.9695 69.6341 30.0445 70.622 35.5475C71.6098 41.0506 70.7884 46.711 68.2707 51.7493L96.5207 78.7493C98.3938 80.5396 99.4461 82.9676 99.4461 85.4993C99.4461 88.0311 98.3938 90.4591 96.5207 92.2493C94.6476 94.0396 92.1072 95.0453 89.4582 95.0453C86.8093 95.0453 84.2688 94.0396 82.3957 92.2493L54.1457 65.2493C48.8741 67.6556 42.9517 68.4407 37.1938 67.4965C31.436 66.5524 26.1261 63.9254 21.9952 59.9773C17.8643 56.0292 15.1157 50.9542 14.1278 45.4511C13.1399 39.9481 13.9614 34.2877 16.479 29.2493L32.9582 44.9993Z" stroke="white" stroke-width="4" stroke-linecap="round" stroke-linejoin="round"/>
</svg>
