<svg width="114" height="114" viewBox="0 0 114 114" fill="none" xmlns="http://www.w3.org/2000/svg">
<path d="M19 66.5V52.25C19 42.1718 23.0036 32.5063 30.1299 25.3799C37.2563 18.2536 46.9218 14.25 57 14.25C67.0782 14.25 76.7437 18.2536 83.8701 25.3799C90.9964 32.5063 95 42.1718 95 52.25V66.5M19 66.5C19 63.9804 20.0009 61.5641 21.7825 59.7825C23.5641 58.0009 25.9804 57 28.5 57H33.25C35.7696 57 38.1859 58.0009 39.9675 59.7825C41.7491 61.5641 42.75 63.9804 42.75 66.5V80.75C42.75 83.2696 41.7491 85.6859 39.9675 87.4675C38.1859 89.2491 35.7696 90.25 33.25 90.25H28.5C25.9804 90.25 23.5641 89.2491 21.7825 87.4675C20.0009 85.6859 19 83.2696 19 80.75V66.5ZM95 66.5C95 63.9804 93.9991 61.5641 92.2175 59.7825C90.4359 58.0009 88.0196 57 85.5 57H80.75C78.2304 57 75.8141 58.0009 74.0325 59.7825C72.2509 61.5641 71.25 63.9804 71.25 66.5V80.75C71.25 83.2696 72.2509 85.6859 74.0325 87.4675C75.8141 89.2491 78.2304 90.25 80.75 90.25H85.5M95 66.5V80.75C95 83.2696 93.9991 85.6859 92.2175 87.4675C90.4359 89.2491 88.0196 90.25 85.5 90.25M85.5 90.25C85.5 98.1207 72.7415 104.5 57 104.5" stroke="#FFFAFA" stroke-width="4" stroke-linecap="round" stroke-linejoin="round"/>
</svg>
