<svg width="107" height="107" viewBox="0 0 107 107" fill="none" xmlns="http://www.w3.org/2000/svg">
<path d="M74.4542 35.6667C73.5668 33.1488 71.9462 30.9541 69.8009 29.365C67.6556 27.7759 65.0839 26.8652 62.4167 26.75H44.5834C41.0361 26.75 37.6341 28.1591 35.1258 30.6674C32.6175 33.1757 31.2084 36.5777 31.2084 40.125C31.2084 43.6723 32.6175 47.0743 35.1258 49.5826C37.6341 52.0909 41.0361 53.5 44.5834 53.5H62.4167C65.964 53.5 69.366 54.9091 71.8743 57.4174C74.3826 59.9257 75.7917 63.3277 75.7917 66.875C75.7917 70.4223 74.3826 73.8243 71.8743 76.3326C69.366 78.8409 65.964 80.25 62.4167 80.25H44.5834C41.9162 80.1348 39.3444 79.2241 37.1992 77.635C35.0539 76.0459 33.4333 73.8512 32.5459 71.3333M53.5 13.375V26.75M53.5 80.25V93.625" stroke="white" stroke-width="4" stroke-linecap="round" stroke-linejoin="round"/>
</svg>
